<svg width="407" height="407" viewBox="0 0 407 407" fill="none" xmlns="http://www.w3.org/2000/svg">
<circle cx="203.5" cy="203.5" r="203.5" fill="#273ED4"/>
<path d="M71 84.9139C71 98.3449 71.1076 111.164 71.2511 113.396L71.4663 117.429L72.1477 116.349C73.3672 114.333 76.0572 111.992 78.4603 110.84L80.8634 109.687H98.1153H115.331L118.021 111.02C119.456 111.74 121.321 113 122.074 113.792L123.473 115.233L125.482 114.224C129.786 112.028 138.86 108.679 142.662 107.887C143.523 107.707 143.81 107.491 143.666 107.095C143.523 106.807 136.098 96.2205 127.096 83.5456L110.74 60.5365H90.8702H71V84.9139Z" fill="white"/>
<path d="M279.637 82.9334C266.94 100.793 263.82 105.402 264.286 105.618C264.609 105.726 267.837 106.015 271.495 106.231C295.526 107.599 313.065 116.565 323.968 133.093C328.81 140.438 331.967 148.756 334.262 160.207L335.231 164.996L335.446 134.461C335.589 117.681 335.697 94.1679 335.697 82.2132V60.5364H315.647H295.598L279.637 82.9334Z" fill="white"/>
<path d="M259.659 120.994C252.342 121.678 245.635 123.587 238.39 127.079C230.177 131.04 223.541 135.685 215.328 143.283L210.307 147.964L209.266 145.912C201.627 131.22 189.181 123.334 170.494 121.39C164.899 120.778 151.27 121.102 147.755 121.93C143.272 122.938 136.708 125.279 132.153 127.511C127.418 129.816 119.492 134.965 114.757 138.818L111.709 141.339L111.601 132.625L111.529 123.911H98.0794H84.6294V204.389V284.867H98.0794H111.529V225.345V165.86L113.968 163.844C128.53 151.709 141.729 146.236 156.363 146.236C166.477 146.236 173.364 148.036 179.031 152.213C182.546 154.842 185.738 160.207 187.388 166.4C189.611 174.682 189.504 171.585 189.611 230.746L189.755 284.867H203.384H217.014L216.834 234.887C216.619 184.404 216.476 172.99 215.938 169.713L215.651 167.948L218.735 165.212C230.751 154.553 241.941 148.612 253.526 146.74C257.615 146.056 266.259 146.092 270.276 146.776C284.156 149.152 290.469 155.454 293.553 170.001C294.845 176.122 294.916 178.931 295.06 232.187L295.203 284.867H308.653H322.103L321.96 230.566C321.816 175.294 321.781 174.538 320.418 166.04C316.508 141.987 305.21 128.304 284.981 123.046C278.382 121.318 266.617 120.382 259.659 120.994Z" fill="white"/>
<path d="M149.548 161.431C146.464 162.079 142.734 163.267 142.339 163.735C141.909 164.276 141.263 163.303 161.886 192.326L174.834 210.51L174.942 197.907C175.121 176.05 174.009 168.236 170.208 164.384C168.558 162.727 166.477 161.899 162.281 161.359C159.125 160.927 151.664 160.963 149.548 161.431Z" fill="white"/>
<path d="M254.638 161.503C247.967 163.015 242.085 165.824 235.019 170.973L231.36 173.602L231.576 191.534C231.683 201.364 231.827 209.466 231.827 209.502C231.898 209.574 239 199.744 259.408 171.261C263.927 164.96 266.259 161.431 265.972 161.287C265.326 160.855 256.79 161.035 254.638 161.503Z" fill="white"/>
<path d="M71.2511 296.893C71.1076 299.666 71 311.657 71 323.467V345H89.1127H107.225V322.351V299.666L94.2417 299.558C82.8719 299.45 81.0068 299.342 79.608 298.802C77.0256 297.793 74.6584 295.993 73.0085 293.833L71.4663 291.78L71.2511 296.893Z" fill="white"/>
<path d="M333.939 293.508C332.254 295.813 330.245 297.433 327.663 298.514L325.475 299.45L312.491 299.558L299.471 299.666V322.351V345H317.584H335.697L335.661 320.046C335.661 306.363 335.518 294.373 335.41 293.472L335.159 291.816L333.939 293.508Z" fill="white"/>
</svg>
