<svg width="304" height="137" viewBox="0 0 304 137" fill="none" xmlns="http://www.w3.org/2000/svg">
<g clip-path="url(#clip0_406_702)">
<path d="M197.687 0.5C200 1 200 1 202 3C205.053 18.6178 193.277 35.5339 185 48C183.599 49.7627 182.184 51.5143 180.75 53.25C174.947 60.8452 171 73.3897 171 83C183.676 78.1357 196.028 72.8062 208.24 66.8623C209.292 66.3612 210.345 65.8601 211.43 65.3438C212.36 64.8919 213.291 64.4401 214.249 63.9746C217.324 62.8852 219.762 62.8211 223 63C222.594 66.4108 222.062 68.8836 220.437 71.9375C218.757 75.5168 218.766 78.0926 219 82C241.609 88.6146 270.513 74.5013 290.823 65.5769C298.443 62.2526 298.443 62.2526 302 62C302.66 62.66 303.32 63.32 304 64C303.858 66.0034 303.858 66.0034 303 68C301.399 69.0942 301.399 69.0942 299.266 69.9453C298.449 70.2756 297.632 70.606 296.791 70.9463C295.87 71.294 294.949 71.6417 294 72C293.002 72.3812 292.003 72.7625 290.975 73.1553C287.577 74.4261 284.167 75.6571 280.75 76.875C279.526 77.3119 278.302 77.7488 277.041 78.199C266.487 81.9177 255.844 85.2341 245 88C244.183 88.2101 243.365 88.4202 242.523 88.6367C238.542 89.2099 234.58 89.2253 230.562 89.25C229.729 89.2706 228.896 89.2912 228.037 89.3125C222.927 89.3448 219.421 88.8515 215 86C211.753 82.1035 211.708 78.9668 212 74C208.078 75.2669 204.273 76.6664 200.48 78.2773C199.458 78.7085 198.435 79.1397 197.381 79.584C195.263 80.4815 193.146 81.38 191.029 82.2793C173.919 89.4865 173.919 89.4865 165 89C163.794 83.7725 164.244 79.2347 165 74C164.31 74.7361 163.621 75.4721 162.91 76.2305C150.429 89.2995 150.429 89.2995 141.125 90.5C138 90 138 90 136.062 88.875C134.547 86.2012 134.807 84.0208 135 81C135 80.34 135 79.68 135 79C133.445 79.7406 133.445 79.7406 131.859 80.4961C130.49 81.1434 129.12 81.7905 127.75 82.4375C127.068 82.763 126.386 83.0885 125.684 83.4238C125.02 83.7364 124.356 84.049 123.672 84.3711C122.761 84.8031 122.761 84.8031 121.831 85.2439C116.445 87.4679 110.741 87.7539 105 87C102.225 85.6309 101.071 84.4071 99 82C99 81.01 99 80.02 99 79C98.2639 79.5543 97.5279 80.1086 96.7695 80.6797C95.7937 81.4041 94.8179 82.1286 93.8125 82.875C92.8496 83.5943 91.8866 84.3136 90.8945 85.0547C84.5237 89.3363 78.5627 90.0028 71 89C67.75 86.9375 67.75 86.9375 66 84C65.6045 80.1774 65.7874 77.6378 67 74C66.01 74.2771 65.02 74.5543 64 74.8398C62.6667 75.206 61.3334 75.5719 60 75.9375C59.0274 76.2111 59.0274 76.2111 58.0351 76.4902C49.3199 78.8632 40.9882 79.1356 32 79.0625C30.9391 79.058 29.8782 79.0535 28.7851 79.0488C26.19 79.0371 23.595 79.0208 21 79C18.7328 84.6861 17.1205 90.235 15.8437 96.2148C15.6553 97.07 15.4669 97.9252 15.2728 98.8063C14.6763 101.516 14.0873 104.226 13.5 106.938C12.9123 109.645 12.3227 112.352 11.7272 115.058C11.3585 116.733 10.9942 118.41 10.6351 120.087C9.75276 124.099 8.7683 128.078 7.61522 132.022C7.40265 132.761 7.19007 133.5 6.97106 134.262C5.99999 136 5.99999 136 3.89904 136.749C2.95901 136.873 2.95901 136.873 1.99999 137C-0.359071 132.51 0.153828 129.687 1.24218 124.816C2.95258 116.659 4.00026 108.519 4.88036 100.236C5.1253 97.9345 5.38028 95.6343 5.63671 93.334C6.60859 84.4856 6.60859 84.4856 7.26854 75.6099C7.30769 74.9173 7.34683 74.2247 7.38717 73.5111C7.48593 71.6233 7.56941 69.7346 7.65184 67.8459C7.99999 65 7.99999 65 9.99999 63C12.625 63.375 12.625 63.375 15 64C15 66.97 15 69.94 15 73C15.2966 72.1144 15.5931 71.2288 15.8987 70.3164C35.5956 11.7022 35.5956 11.7022 51 4C54.5625 3.875 54.5625 3.875 58 4C58.495 4.495 58.495 4.495 59 5C58.7046 11.969 56.3808 17.2426 53.3125 23.4375C52.8313 24.426 52.3502 25.4144 51.8545 26.4329C43.9883 42.3587 34.9712 57.6796 26 73C41.8689 73.5667 56.7022 70.529 71.0547 63.75C73.7506 62.7106 76.1514 62.7078 79 63C78.5564 68.5451 77.0907 71.4605 74 76C73.1201 79.1815 73.1201 79.1815 73 82C73.9749 83.2033 73.9749 83.2033 75.7851 83.0547C86.3197 82.2235 91.8062 76.5333 98.8008 69.0117C101 67 101 67 104 67C104.133 67.8546 104.266 68.7093 104.402 69.5898C104.579 70.6946 104.756 71.7993 104.937 72.9375C105.112 74.0396 105.286 75.1418 105.465 76.2773C105.718 78.9043 105.718 78.9043 107 80C121.277 82.0951 133.751 72.5841 145 65C145.99 64.01 145.99 64.01 147 63C150.125 62.875 150.125 62.875 153 63C153.33 63.99 153.66 64.98 154 66C152.961 67.7969 152.961 67.7969 151.375 69.75C150.822 70.45 150.269 71.1499 149.699 71.8711C149.138 72.5736 148.578 73.2762 148 74C144.434 78.6796 144.434 78.6796 142 84C152.183 77.4886 159.649 70.6747 167 61C167.652 60.1673 168.305 59.3345 168.977 58.4766C172.251 53.4666 173.784 47.499 175.687 41.875C178.779 32.9972 181.976 24.2132 185.812 15.625C186.161 14.8308 186.509 14.0366 186.868 13.2183C192.227 1.51588 192.227 1.51588 197.687 0.5ZM195 12C193.633 14.9526 192.284 17.9129 190.937 20.875C190.548 21.7168 190.158 22.5585 189.756 23.4258C189.392 24.2314 189.028 25.0371 188.652 25.8672C188.312 26.6108 187.972 27.3544 187.621 28.1206C186.736 30.0588 186.736 30.0588 188 32C189.156 29.7965 190.3 27.588 191.437 25.375C191.763 24.7575 192.088 24.1401 192.424 23.5039C194.383 19.6671 195.532 16.2826 196 12C195.67 12 195.34 12 195 12ZM47.6523 14.2227C38.873 23.642 34.0369 35.3964 29.4375 47.25C29.0786 48.1674 28.7196 49.0848 28.3498 50.03C28.0269 50.8915 27.7039 51.753 27.3711 52.6406C27.0816 53.4092 26.7921 54.1778 26.4939 54.9697C25.7653 57.1817 25.7653 57.1817 27 60C27.3822 59.2606 27.7644 58.5213 28.1582 57.7595C29.614 54.9444 31.0707 52.1297 32.528 49.3152C33.1744 48.0665 33.8205 46.8176 34.4664 45.5685C40.706 33.5034 40.706 33.5034 43.6758 28.043C44.0457 27.3624 44.4157 26.6819 44.7969 25.9807C45.7401 24.2573 46.692 22.5386 47.6445 20.8203C48.9237 18.1588 49.5865 15.9103 50 13C48.8202 12.888 48.8202 12.888 47.6523 14.2227ZM186 32C187 34 187 34 187 34L186 32ZM25 60C26 62 26 62 26 62L25 60ZM13 77C14 80 14 80 14 80L13 77Z" fill="black"/>
<path d="M257 36C257.625 37.875 257.625 37.875 258 40C255.694 42.3065 255.055 42.3217 251.922 42.6328C251.097 42.7168 250.271 42.8007 249.421 42.8872C248.099 43.0049 248.099 43.0049 246.75 43.125C245.856 43.2099 244.961 43.2948 244.04 43.3823C236.674 44.0377 229.396 44.2204 222 44C222 42.02 222 40.04 222 38C222.761 37.9749 223.523 37.9499 224.307 37.9241C227.768 37.8078 231.228 37.6852 234.688 37.5625C235.886 37.5232 237.084 37.4839 238.318 37.4434C239.475 37.4015 240.632 37.3596 241.824 37.3164C242.887 37.2797 243.95 37.2431 245.046 37.2053C249.138 36.9209 252.875 36 257 36Z" fill="black"/>
</g>
<defs>
<clipPath id="clip0_406_702">
<rect width="304" height="137" fill="white"/>
</clipPath>
</defs>
</svg>
