<svg width="167" height="167" viewBox="0 0 167 167" fill="none" xmlns="http://www.w3.org/2000/svg">
<path d="M97.4805 83.3743C97.4805 75.8885 91.2217 69.8191 83.5 69.8191C75.7794 69.8191 69.5195 75.8885 69.5195 83.3743C69.5195 90.8611 75.7794 96.93 83.5 96.93C91.2217 96.93 97.4805 90.8611 97.4805 83.3743Z" fill="#53C1DE"/>
<path fill-rule="evenodd" clip-rule="evenodd" d="M122.486 17.6924C135.569 25.0055 131.857 46.5762 128.905 58.2084C134.068 59.6482 140.906 61.8211 147.008 65H129.026C128.347 64.8039 127.707 64.6228 127.114 64.4563C127.056 64.6372 126.998 64.8184 126.939 65H119.91C120.16 64.2736 120.4 63.5525 120.63 62.8369C116.136 61.8422 111.35 61.0291 106.354 60.418C108.316 63.3988 110.196 66.4293 112 69.5021V83.2889C107.801 75.0986 103.07 67.1564 97.7832 59.5804C88.2898 58.8785 78.7379 58.8805 69.2445 59.5762C63.8796 67.1987 59.1159 75.2121 54.9936 83.5303C59.1357 91.8657 63.9344 99.8947 69.3248 107.529C78.8115 108.125 88.354 108.132 97.8375 107.475C103.088 99.8284 107.85 91.8498 112 83.5899V97.5079C110.189 100.612 108.298 103.673 106.336 106.69C108.262 106.465 110.152 106.212 112 105.931V112.492C108.634 112.982 105.149 113.382 101.57 113.69C97.2671 119.73 92.8583 125.169 88.4463 129.847C93.5775 134.634 103.343 143.499 112 144.794V148C112 149.39 112.709 150.615 113.786 151.332C102.714 150.941 90.8565 141.11 83.7891 134.499C74.7586 142.965 57.3922 156.527 44.2721 149.192C31.2392 141.902 35.0522 120.993 38.0811 109.223C26.0111 105.882 5.21875 98.0467 5.21875 83.3742C5.21875 68.66 26.0327 61.4581 38.1746 58.1144C35.1568 46.4093 31.1429 25.1963 44.1591 17.8906C57.2304 10.5542 74.6511 24.4468 83.5725 32.7382C92.5201 24.3634 109.465 10.4111 122.486 17.6924ZM44.5659 110.811C42.3375 119.481 37.8956 138.14 47.6139 143.574C57.3775 149.032 73.4555 135.17 79.1037 129.872C74.5321 125.115 69.9954 119.683 65.6644 113.773C58.0774 113.176 50.9785 112.187 44.5659 110.811ZM39.9706 64.3607C31.0102 66.8172 11.9065 72.4049 11.9065 83.3742C11.9065 94.3503 31.3318 100.605 39.8757 102.976C41.8532 96.7248 44.4598 90.1623 47.6014 83.5324C44.5 76.9995 41.9301 70.5392 39.9706 64.3607ZM78.8861 37.3669C72.4086 31.3638 57.268 18.0264 47.5099 23.5028C37.7625 28.9734 42.2262 47.0768 44.6573 56.5175C51.1372 55.0938 58.1859 54.0313 65.5491 53.3695C69.8431 47.4937 74.338 42.1025 78.8861 37.3669ZM92.7883 52.785C89.7489 48.8595 86.6594 45.2412 83.5746 42.001C80.4418 45.2788 77.3257 48.8917 74.2837 52.7809C80.4486 52.5011 86.6234 52.5022 92.7883 52.785ZM46.4637 62.7685C47.8245 67.0213 49.4909 71.4249 51.4386 75.9036C54.2599 70.6019 57.3363 65.4285 60.6575 60.406C55.6945 61.0072 50.9307 61.7994 46.4637 62.7685ZM46.3715 104.556C50.8372 105.499 55.6731 106.251 60.8 106.805C57.4297 101.735 54.3063 96.5119 51.4462 91.1549C49.4569 95.7301 47.7539 100.229 46.3715 104.556ZM74.34 114.275C77.428 118.221 80.59 121.889 83.7599 125.206C86.8238 121.935 89.9024 118.261 92.9512 114.244C86.7518 114.512 80.5399 114.511 74.34 114.275ZM122.429 56.5848C124.562 48.1548 128.906 28.7686 119.146 23.3101C109.479 17.905 94.8221 31.2311 88.2616 37.3636C92.7361 42.038 97.1935 47.4386 101.496 53.3779C108.88 54.0501 115.934 55.1314 122.429 56.5848Z" fill="#53C1DE"/>
<path d="M156.221 70H122.783C122.023 69.9995 121.27 70.1519 120.568 70.4484C119.865 70.7449 119.227 71.1797 118.69 71.7279C118.153 72.2761 117.727 72.927 117.437 73.6432C117.147 74.3594 116.999 75.1269 117 75.9017V145.106C117 145.88 117.149 146.647 117.439 147.362C117.73 148.077 118.156 148.727 118.693 149.275C119.23 149.822 119.868 150.256 120.569 150.552C121.271 150.848 122.023 151 122.783 151H156.221C159.41 151 162 148.357 162 145.106V75.9017C162 72.6434 159.41 70 156.221 70ZM133.656 73.7663H145.583V76.5938H133.656V73.7663ZM139.504 145.172C138.525 145.171 137.587 144.775 136.894 144.07C136.202 143.366 135.811 142.41 135.808 141.413C135.85 140.444 136.258 139.529 136.945 138.858C137.633 138.187 138.548 137.813 139.5 137.813C140.452 137.813 141.367 138.187 142.055 138.858C142.742 139.529 143.15 140.444 143.192 141.413C143.188 143.232 141.53 145.172 139.504 145.172ZM157.665 132.282H121.335V79.9552H157.665V132.282Z" fill="#53C1DE"/>
</svg>
